<?xml version="1.0" encoding="UTF-8" standalone="no"?>
<!-- Created with Inkscape (http://www.inkscape.org/) -->

<svg
   xmlns:dc="http://purl.org/dc/elements/1.1/"
   xmlns:cc="http://creativecommons.org/ns#"
   xmlns:rdf="http://www.w3.org/1999/02/22-rdf-syntax-ns#"
   xmlns:svg="http://www.w3.org/2000/svg"
   xmlns="http://www.w3.org/2000/svg"
   xmlns:sodipodi="http://sodipodi.sourceforge.net/DTD/sodipodi-0.dtd"
   xmlns:inkscape="http://www.inkscape.org/namespaces/inkscape"
   version="1.1"
   id="svg3713"
   width="128"
   height="145"
   viewBox="0 0 128 145"
   sodipodi:docname="logo.svg"
   inkscape:version="0.92.3 (2405546, 2018-03-11)">
  <metadata
     id="metadata3719">
    <rdf:RDF>
      <cc:Work
         rdf:about="">
        <dc:format>image/svg+xml</dc:format>
        <dc:type
           rdf:resource="http://purl.org/dc/dcmitype/StillImage" />
        <dc:title></dc:title>
      </cc:Work>
    </rdf:RDF>
  </metadata>
  <defs
     id="defs3717" />
  <sodipodi:namedview
     pagecolor="#ffffff"
     bordercolor="#666666"
     borderopacity="1"
     objecttolerance="10"
     gridtolerance="10"
     guidetolerance="10"
     inkscape:pageopacity="0"
     inkscape:pageshadow="2"
     inkscape:window-width="1366"
     inkscape:window-height="705"
     id="namedview3715"
     showgrid="false"
     inkscape:zoom="2.6138568"
     inkscape:cx="25.96654"
     inkscape:cy="66.785244"
     inkscape:window-x="-8"
     inkscape:window-y="-8"
     inkscape:window-maximized="1"
     inkscape:current-layer="svg3713" />
  <g
     id="g3751"
     transform="translate(1.5303084,-4.5909171)">
    <path
       style="fill:#ebebeb;stroke-width:0.60730159"
       d="M 22.954584,68.865524 V 26.78035 H 63.617422 104.28026 V 68.865524 110.9507 H 63.617422 22.954584 Z"
       id="path3755"
       inkscape:connector-curvature="0" />
    <path
       style="fill:#2a2a2a;stroke-width:0.60730159"
       d="M 26.893796,103.86878 C 26.1023,103.14564 25.808832,92.661713 26.512975,90.26421 c 0.352161,-1.199056 0.473168,-1.213736 3.644626,-0.442254 1.804204,0.438893 4.138103,0.800629 5.186441,0.803862 l 1.906071,0.0059 0.07284,-7.109935 c 0.113168,-11.046326 2.839526,-18.393327 7.703217,-20.758644 3.165093,-1.539253 3.710436,-2.108911 4.570971,-4.774781 1.132102,-3.507163 2.924288,-5.086139 5.772921,-5.086139 2.901204,0 4.435219,1.427506 4.435219,4.127276 0,1.670523 0.609793,2.555477 3.663018,5.315907 2.01466,1.82146 4.192897,4.210698 4.840528,5.309415 1.11073,1.884377 1.119004,2.154547 0.145884,4.763847 -1.015384,2.722624 -1.007043,2.798685 0.529771,4.830903 2.89742,3.831427 10.237585,11.329892 12.384899,12.651987 1.172611,0.721979 3.067042,1.312686 4.209847,1.312686 3.044969,0 4.087825,0.534157 4.087825,2.093805 0,1.538657 0.933898,1.729282 4.23471,0.864377 1.760796,-0.461376 2.046898,-0.373775 2.369716,0.725606 0.659799,2.246971 0.40673,8.253902 -0.377929,8.970792 -1.099701,1.00473 -67.900054,1.00473 -68.999754,0 z m 42.07761,-11.783849 c -0.0341,-2.126236 -0.54545,-3.662629 -1.912099,-5.745062 -3.067037,-4.6734 -3.499979,-4.691431 -7.812976,-0.325391 -2.058178,2.083489 -4.929534,4.539963 -6.38079,5.458825 -3.712602,2.35064 -2.663665,2.929424 5.35173,2.953015 3.634146,0.01068 6.825519,0.218599 7.091941,0.462014 0.266422,0.243409 1.20988,0.36527 2.096573,0.270796 1.493293,-0.159105 1.608738,-0.38579 1.565621,-3.074197 z M 58.852246,72.307095 c 1.851086,-1.40895 1.870493,-1.475329 0.67276,-2.301065 -0.67832,-0.467644 -1.89344,-0.850263 -2.700267,-0.850263 -1.127951,0 -1.466956,0.324395 -1.466956,1.403737 0,0.772054 -0.173545,1.816928 -0.385655,2.321941 -0.603498,1.436869 1.682296,1.098518 3.880118,-0.57435 z m 2.214019,-7.650088 c -0.02238,-1.001597 -1.172692,-2.004949 -1.856158,-1.619024 -0.558614,0.315426 -0.556975,0.614742 0.0068,1.23534 0.797075,0.87747 1.865385,1.099107 1.849398,0.383684 z M 94.98762,34.89213 c -0.433593,-0.396145 -11.961738,-0.541889 -34.436547,-0.435363 -18.581618,0.08807 -33.710636,-0.04278 -33.620042,-0.29078 0.0906,-0.248002 15.601336,-0.452284 34.468315,-0.453961 30.299711,-0.0027 34.327575,0.100753 34.50902,0.886277 0.239981,1.038904 -0.01588,1.120553 -0.920746,0.293827 z"
       id="path3753"
       inkscape:connector-curvature="0" />
  </g>
  <rect
     style="fill:#0000ff"
     id="rect3773"
     width="81.106201"
     height="11.480826"
     x="24.484892"
     y="22.189432" />
</svg>
